<svg width="36" height="64" viewBox="0 0 36 64" fill="none" xmlns="http://www.w3.org/2000/svg">
<path d="M13.3568 0.731536C7.77536 1.40417 3.51488 3.84578 1.78304 7.34658C1.47136 7.9821 1.12256 8.89153 1.01056 9.37729C0.723841 10.6355 0.736641 12.6784 1.06048 14.4231C1.21024 15.2077 1.40928 16.4909 1.52128 17.2762C2.4064 23.7914 5.072 29.4599 8.70976 32.5863C10.3917 34.0314 12.2106 35.0528 14.2285 35.6634C15.7107 36.112 15.7235 36.1242 15.7485 36.6099C15.7734 36.8467 15.8733 37.8061 15.9853 38.7527C16.0973 39.6999 16.16 40.4967 16.1222 40.5344C16.0851 40.5843 15.6115 40.4595 15.0758 40.2855C12.6214 39.4759 9.78112 39.0893 5.57056 39.0023C2.34368 38.9402 0.574722 39.0522 0.300802 39.3261C-0.0358378 39.6627 0.886402 42.9389 1.90784 44.9575C3.81376 48.7693 6.16832 50.8128 9.744 51.7472C10.8032 52.034 11.2512 52.0839 12.7962 52.0839C14.0915 52.0967 14.839 52.034 15.4496 51.8848C15.9232 51.7728 16.3341 51.673 16.3718 51.673C16.4717 51.673 16.3469 53.7908 16.023 57.4663C15.6992 61.1412 15.7242 61.7146 16.247 62.3501C16.7328 62.9728 17.2435 63.2468 17.991 63.3344C18.8506 63.4464 19.5731 63.2096 20.1338 62.649C20.7315 62.0512 20.8435 61.5904 21.0681 59.1111C21.1552 58.0269 21.255 57.1303 21.28 57.0925C21.305 57.0676 21.6409 57.1296 22.0153 57.2295C22.912 57.4663 24.9056 57.4535 26.1017 57.2045C28.4064 56.7309 30.5619 55.5604 32.3059 53.8535C34.0377 52.1466 34.9344 50.4026 35.495 47.6243C35.9187 45.5437 35.8438 41.9808 35.3331 40.3738C35.1584 39.8381 34.8595 39.8381 33.1776 40.3987C29.5027 41.6199 25.3043 43.7248 22.6752 45.6435C22.1894 46.0045 21.753 46.2663 21.7158 46.2292C21.6787 46.1792 21.6409 45.5194 21.6409 44.7591C21.6409 43.3139 21.4169 40.5856 21.0803 38.1063C20.9805 37.321 20.8934 36.5863 20.8934 36.4615C20.8934 36.2995 21.1302 36.1747 21.8029 35.9757C26.2381 34.6304 30.0749 30.2573 32.7661 23.4554C34.647 18.6714 35.4944 13.4394 34.535 12.48C34.1613 12.1063 33.4758 11.9322 32.903 12.0563C32.5664 12.1312 32.1805 12.4173 31.4579 13.1527C29.5142 15.1213 27.0976 16.3546 23.9085 17.0023C22.3514 17.3261 17.7664 17.3139 15.8605 17.0023C11.5622 16.2797 7.88736 14.5856 6.50432 12.704C4.9472 10.5863 5.7568 8.55554 8.74688 7.12258C10.9645 6.05121 13.4061 5.5405 16.2214 5.5405C19.5475 5.5405 22.4755 6.31298 24.3686 7.69538L24.9043 8.0941L24.6304 8.38082C24.2067 8.82946 22.7616 9.53922 21.6781 9.82594C20.9184 10.0378 20.3328 10.0877 19.0246 10.0877C17.2678 10.0999 16.7571 9.98786 14.6643 9.20322C13.593 8.8045 12.6214 9.0413 11.9981 9.83874C11.5494 10.4365 11.4746 11.0471 11.7613 11.6947C12.9946 14.4602 19.8592 15.5815 24.5056 13.7875C25.0163 13.5885 25.8016 13.2147 26.2496 12.9651C27.3709 12.3175 28.8531 10.8103 29.3139 9.87586C29.6377 9.20322 29.6755 9.00354 29.6755 7.94498C29.6755 6.88578 29.6384 6.68674 29.3139 6.08898C28.0928 3.73442 24.455 1.72866 20.0326 0.956176C18.3526 0.656652 14.9018 0.544658 13.3568 0.731536Z" fill="#54DF6A"/>
</svg>
